<?xml version="1.0" standalone="no"?><svg xmlns="http://www.w3.org/2000/svg" viewBox="0 0 1440 320"><path fill="#AAA4F2" fill-opacity="1" d="M0,192L26.7,165.3C53.3,139,107,85,160,106.7C213.3,128,267,224,320,240C373.3,256,427,192,480,138.7C533.3,85,587,43,640,48C693.3,53,747,107,800,138.7C853.3,171,907,181,960,170.7C1013.3,160,1067,128,1120,106.7C1173.3,85,1227,75,1280,58.7C1333.3,43,1387,21,1413,10.7L1440,0L1440,320L1413.3,320C1386.7,320,1333,320,1280,320C1226.7,320,1173,320,1120,320C1066.7,320,1013,320,960,320C906.7,320,853,320,800,320C746.7,320,693,320,640,320C586.7,320,533,320,480,320C426.7,320,373,320,320,320C266.7,320,213,320,160,320C106.7,320,53,320,27,320L0,320Z" style="--darkreader-inline-fill: #0d083e;" data-darkreader-inline-fill=""></path></svg>